<?xml version="1.0" encoding="utf-8"?>
<!-- Generator: Adobe Illustrator 24.3.0, SVG Export Plug-In . SVG Version: 6.00 Build 0)  -->
<svg version="1.1" id="Capa_1" xmlns="http://www.w3.org/2000/svg" xmlns:xlink="http://www.w3.org/1999/xlink" x="0px" y="0px"
	 viewBox="0 0 512 512" style="enable-background:new 0 0 512 512;" xml:space="preserve">
<style type="text/css">
	.st0{fill:#ED6C23;}
	.st1{fill:#C24B08;}
	.st2{fill:#F3EEE9;}
	.st3{fill:#E9DFDA;}
	.st4{fill:#FDD1A3;}
	.st5{fill:#F98F5A;}
	.st6{fill:#FFBB85;}
	.st7{fill:#EA7847;}
</style>
<path class="st0" d="M256,512c-5.7,0-10.9-3.2-13.4-8.3l-46.1-92.3C107.5,385.2,46,303.4,46,210C46,94.2,140.2,0,256,0
	s210,94.2,210,210c0,93.4-61.5,175.2-150.4,201.4l-46.1,92.3C266.9,508.8,261.7,512,256,512z"/>
<path class="st1" d="M256,0c0,0-0.1,0-0.1,0v512c0,0,0.1,0,0.1,0c5.7,0,10.9-3.2,13.4-8.3l46.1-92.3C404.5,385.2,466,303.4,466,210
	C466,94.2,371.8,0,256,0z"/>
<path class="st2" d="M256,265c-25.2,0-48.8,73.1-69,61c-39.5-23.6-66-66.8-66-116c0-74.4,60.6-135,135-135s135,60.6,135,135
	c0,50.5-27.9,94.6-69,117.7C302.5,338.7,280,265,256,265z"/>
<path class="st3" d="M256,75c0,0-0.1,0-0.1,0v190c0,0,0.1,0,0.1,0c24,0,46.5,73.7,66,62.7c41.1-23.2,69-67.3,69-117.7
	C391,135.6,330.4,75,256,75z"/>
<path class="st4" d="M256,210c-24.8,0-45-20.2-45-45s20.2-45,45-45s45,20.2,45,45S280.8,210,256,210z"/>
<path class="st5" d="M255.3,240c-41.3,0.4-74.3,34.7-74.3,76c0,4,2.1,7.7,5.5,9.7c20.3,12.2,44.1,19.3,69.5,19.3s49.2-7.1,69.5-19.3
	c3.4-2.1,5.5-5.8,5.5-9.7v-1C331,273.4,297,239.6,255.3,240z"/>
<path class="st6" d="M256,120c0,0-0.1,0-0.1,0v90c0,0,0.1,0,0.1,0c24.8,0,45-20.2,45-45S280.8,120,256,120z"/>
<path class="st7" d="M255.9,240v105c0,0,0.1,0,0.1,0c25.4,0,49.2-7.1,69.5-19.3c3.4-2.1,5.5-5.8,5.5-9.7v-1
	C331,273.6,297.3,239.9,255.9,240z"/>
</svg>
